<svg width="74" height="21" viewBox="0 0 74 21" fill="none" xmlns="http://www.w3.org/2000/svg">
<path d="M9.33949 5.45312C9.2732 4.83286 8.99384 4.34991 8.50142 4.00426C8.01373 3.65862 7.37926 3.4858 6.59801 3.4858C6.04877 3.4858 5.57765 3.56866 5.18466 3.73438C4.79167 3.90009 4.491 4.125 4.28267 4.40909C4.07434 4.69318 3.9678 5.01752 3.96307 5.3821C3.96307 5.68513 4.03172 5.94792 4.16903 6.17045C4.31108 6.39299 4.50284 6.58239 4.74432 6.73864C4.9858 6.89015 5.25331 7.01799 5.54688 7.12216C5.84044 7.22633 6.13636 7.31392 6.43466 7.38494L7.7983 7.72585C8.34754 7.85369 8.87547 8.02651 9.3821 8.24432C9.89347 8.46212 10.3504 8.73674 10.7528 9.06818C11.16 9.39962 11.482 9.79972 11.7188 10.2685C11.9555 10.7372 12.0739 11.2865 12.0739 11.9162C12.0739 12.7685 11.8561 13.5189 11.4205 14.1676C10.9848 14.8116 10.3551 15.3158 9.53125 15.6804C8.71212 16.0402 7.72017 16.2202 6.5554 16.2202C5.42377 16.2202 4.44129 16.045 3.60795 15.6946C2.77936 15.3442 2.13068 14.8329 1.66193 14.1605C1.19792 13.4882 0.94697 12.669 0.909091 11.7031H3.50142C3.5393 12.2098 3.69555 12.6312 3.97017 12.9673C4.24479 13.3035 4.60227 13.5545 5.04261 13.7202C5.48769 13.8859 5.98485 13.9688 6.53409 13.9688C7.10701 13.9688 7.6089 13.8835 8.03977 13.7131C8.47538 13.5379 8.81629 13.2964 9.0625 12.9886C9.30871 12.6761 9.43419 12.3116 9.43892 11.8949C9.43419 11.5161 9.32292 11.2036 9.10511 10.9574C8.88731 10.7064 8.58191 10.4981 8.18892 10.3324C7.80066 10.1619 7.34612 10.0104 6.82528 9.87784L5.17045 9.4517C3.97254 9.14394 3.02557 8.67756 2.32955 8.05256C1.63826 7.42282 1.29261 6.58712 1.29261 5.54545C1.29261 4.68845 1.52462 3.93797 1.98864 3.29403C2.45739 2.65009 3.09422 2.15057 3.89915 1.79545C4.70407 1.43561 5.61553 1.25568 6.63352 1.25568C7.66572 1.25568 8.57008 1.43561 9.34659 1.79545C10.1278 2.15057 10.741 2.64536 11.1861 3.27983C11.6312 3.90956 11.8608 4.634 11.875 5.45312H9.33949ZM16.8803 9.60795V16H14.3093V1.45455H16.8235V6.9446H16.9513C17.207 6.32907 17.6024 5.84375 18.1374 5.48864C18.6772 5.12879 19.3638 4.94886 20.1971 4.94886C20.9547 4.94886 21.6152 5.10748 22.1786 5.42472C22.7421 5.74195 23.1777 6.20597 23.4854 6.81676C23.7979 7.42756 23.9542 8.1733 23.9542 9.05398V16H21.3832V9.4517C21.3832 8.7178 21.1938 8.14725 20.815 7.74006C20.4409 7.32812 19.9154 7.12216 19.2383 7.12216C18.7837 7.12216 18.3765 7.22159 18.0167 7.42045C17.6616 7.61458 17.3822 7.89631 17.1786 8.26562C16.9798 8.63494 16.8803 9.08239 16.8803 9.60795ZM31.3335 16.2131C30.2681 16.2131 29.3448 15.9787 28.5636 15.5099C27.7823 15.0412 27.1763 14.3854 26.7454 13.5426C26.3192 12.6998 26.1062 11.715 26.1062 10.5881C26.1062 9.46117 26.3192 8.47396 26.7454 7.62642C27.1763 6.77888 27.7823 6.12074 28.5636 5.65199C29.3448 5.18324 30.2681 4.94886 31.3335 4.94886C32.3988 4.94886 33.3221 5.18324 34.1033 5.65199C34.8846 6.12074 35.4883 6.77888 35.9144 7.62642C36.3453 8.47396 36.5607 9.46117 36.5607 10.5881C36.5607 11.715 36.3453 12.6998 35.9144 13.5426C35.4883 14.3854 34.8846 15.0412 34.1033 15.5099C33.3221 15.9787 32.3988 16.2131 31.3335 16.2131ZM31.3477 14.1534C31.9253 14.1534 32.4083 13.9948 32.7965 13.6776C33.1848 13.3556 33.4736 12.9247 33.663 12.3849C33.8571 11.8452 33.9542 11.2438 33.9542 10.581C33.9542 9.91335 33.8571 9.30966 33.663 8.76989C33.4736 8.22538 33.1848 7.79214 32.7965 7.47017C32.4083 7.1482 31.9253 6.98722 31.3477 6.98722C30.7558 6.98722 30.2634 7.1482 29.8704 7.47017C29.4821 7.79214 29.1909 8.22538 28.9968 8.76989C28.8074 9.30966 28.7127 9.91335 28.7127 10.581C28.7127 11.2438 28.8074 11.8452 28.9968 12.3849C29.1909 12.9247 29.4821 13.3556 29.8704 13.6776C30.2634 13.9948 30.7558 14.1534 31.3477 14.1534ZM38.7429 20.0909V5.09091H41.2713V6.89489H41.4205C41.553 6.62973 41.7401 6.34801 41.9815 6.04972C42.223 5.74669 42.5497 5.48864 42.9616 5.27557C43.3736 5.05777 43.8991 4.94886 44.5384 4.94886C45.3812 4.94886 46.1411 5.1643 46.8182 5.59517C47.5 6.02131 48.0398 6.65341 48.4375 7.49148C48.84 8.32481 49.0412 9.34754 49.0412 10.5597C49.0412 11.7576 48.8447 12.7756 48.4517 13.6136C48.0587 14.4517 47.5237 15.0909 46.8466 15.5312C46.1695 15.9716 45.4025 16.1918 44.5455 16.1918C43.9205 16.1918 43.402 16.0876 42.9901 15.8793C42.5781 15.6709 42.2467 15.42 41.9957 15.1264C41.7495 14.8281 41.5578 14.5464 41.4205 14.2812H41.3139V20.0909H38.7429ZM41.2642 10.5455C41.2642 11.2509 41.3636 11.8688 41.5625 12.3991C41.7661 12.9295 42.0573 13.3437 42.4361 13.642C42.8196 13.9356 43.2836 14.0824 43.8281 14.0824C44.3963 14.0824 44.8722 13.9309 45.2557 13.6278C45.6392 13.3201 45.928 12.901 46.1222 12.3707C46.321 11.8357 46.4205 11.2273 46.4205 10.5455C46.4205 9.86837 46.3234 9.26705 46.1293 8.74148C45.9351 8.21591 45.6463 7.80398 45.2628 7.50568C44.8793 7.20739 44.401 7.05824 43.8281 7.05824C43.2789 7.05824 42.8125 7.20265 42.429 7.49148C42.0455 7.7803 41.7543 8.18513 41.5554 8.70597C41.3613 9.2268 41.2642 9.83996 41.2642 10.5455ZM51.2429 16V5.09091H53.8139V16H51.2429ZM52.5355 3.54261C52.1283 3.54261 51.7779 3.40767 51.4844 3.13778C51.1908 2.86316 51.044 2.53409 51.044 2.15057C51.044 1.76231 51.1908 1.43324 51.4844 1.16335C51.7779 0.88873 52.1283 0.75142 52.5355 0.75142C52.9474 0.75142 53.2978 0.88873 53.5866 1.16335C53.8802 1.43324 54.027 1.76231 54.027 2.15057C54.027 2.53409 53.8802 2.86316 53.5866 3.13778C53.2978 3.40767 52.9474 3.54261 52.5355 3.54261ZM61.9833 5.09091V7.07955H55.5344V5.09091H61.9833ZM57.1467 16V4.06108C57.1467 3.32718 57.2982 2.71638 57.6012 2.22869C57.909 1.741 58.3209 1.37642 58.837 1.13494C59.3531 0.893465 59.926 0.772726 60.5558 0.772726C61.0008 0.772726 61.3962 0.808238 61.7418 0.879261C62.0875 0.950284 62.3432 1.0142 62.5089 1.07102L61.9975 3.05966C61.8886 3.02651 61.7513 2.99337 61.5856 2.96023C61.4199 2.92235 61.2352 2.90341 61.0316 2.90341C60.5534 2.90341 60.2148 3.01941 60.016 3.25142C59.8219 3.47869 59.7248 3.8054 59.7248 4.23153V16H57.1467ZM65.5948 20.0909C65.2444 20.0909 64.9201 20.0625 64.6218 20.0057C64.3282 19.9536 64.0939 19.892 63.9187 19.821L64.5153 17.8182C64.8893 17.9271 65.2231 17.9792 65.5167 17.9744C65.8103 17.9697 66.0683 17.8774 66.2908 17.6974C66.5181 17.5223 66.7099 17.2287 66.8661 16.8168L67.0863 16.2273L63.1303 5.09091H65.8576L68.3718 13.3295H68.4854L71.0067 5.09091H73.7411L69.3732 17.321C69.1696 17.8987 68.8997 18.3935 68.5636 18.8054C68.2274 19.2221 67.8155 19.5393 67.3278 19.7571C66.8448 19.9796 66.2672 20.0909 65.5948 20.0909Z" fill="#121212"/>
</svg>
