<svg width="28" height="26" viewBox="0 0 28 26" fill="none" xmlns="http://www.w3.org/2000/svg">
<g filter="url(#filter0_d_402_21)">
<path d="M6.41669 23.6667C5.95002 23.6667 5.54169 23.4917 5.19169 23.1417C4.84169 22.7917 4.66669 22.3833 4.66669 21.9167V6.75001C4.66669 6.28334 4.84169 5.87501 5.19169 5.52501C5.54169 5.17501 5.95002 5.00001 6.41669 5.00001H9.62502V4.70834C9.62502 3.48334 10.0479 2.44793 10.8938 1.60209C11.7396 0.75626 12.775 0.333344 14 0.333344C15.225 0.333344 16.2604 0.75626 17.1063 1.60209C17.9521 2.44793 18.375 3.48334 18.375 4.70834V5.00001H21.5834C22.05 5.00001 22.4584 5.17501 22.8084 5.52501C23.1584 5.87501 23.3334 6.28334 23.3334 6.75001V21.9167C23.3334 22.3833 23.1584 22.7917 22.8084 23.1417C22.4584 23.4917 22.05 23.6667 21.5834 23.6667H6.41669ZM6.41669 21.9167H21.5834V6.75001H18.375V9.37501C18.375 9.62779 18.2924 9.83682 18.1271 10.0021C17.9618 10.1674 17.7528 10.25 17.5 10.25C17.2472 10.25 17.0382 10.1674 16.8729 10.0021C16.7077 9.83682 16.625 9.62779 16.625 9.37501V6.75001H11.375V9.37501C11.375 9.62779 11.2924 9.83682 11.1271 10.0021C10.9618 10.1674 10.7528 10.25 10.5 10.25C10.2472 10.25 10.0382 10.1674 9.87294 10.0021C9.70766 9.83682 9.62502 9.62779 9.62502 9.37501V6.75001H6.41669V21.9167ZM11.375 5.00001H16.625V4.70834C16.625 3.96945 16.3722 3.34723 15.8667 2.84168C15.3611 2.33612 14.7389 2.08334 14 2.08334C13.2611 2.08334 12.6389 2.33612 12.1334 2.84168C11.6278 3.34723 11.375 3.96945 11.375 4.70834V5.00001Z" fill="black"/>
</g>
<defs>
<filter id="filter0_d_402_21" x="0.666687" y="0.333344" width="26.6667" height="31.3333" filterUnits="userSpaceOnUse" color-interpolation-filters="sRGB">
<feFlood flood-opacity="0" result="BackgroundImageFix"/>
<feColorMatrix in="SourceAlpha" type="matrix" values="0 0 0 0 0 0 0 0 0 0 0 0 0 0 0 0 0 0 127 0" result="hardAlpha"/>
<feOffset dy="4"/>
<feGaussianBlur stdDeviation="2"/>
<feComposite in2="hardAlpha" operator="out"/>
<feColorMatrix type="matrix" values="0 0 0 0 0 0 0 0 0 0 0 0 0 0 0 0 0 0 0.25 0"/>
<feBlend mode="normal" in2="BackgroundImageFix" result="effect1_dropShadow_402_21"/>
<feBlend mode="normal" in="SourceGraphic" in2="effect1_dropShadow_402_21" result="shape"/>
</filter>
</defs>
</svg>
